<svg width="16" height="16" viewBox="0 0 16 16" fill="none" xmlns="http://www.w3.org/2000/svg">
<path d="M7.91866 0.00222539C9.3631 0.00222539 10.8055 -0.0018957 12.2499 0.00428592C14.3084 0.0125281 15.8064 1.50642 15.8085 3.5546C15.8105 6.44142 15.8105 9.33029 15.8085 12.2171C15.8064 14.2509 14.3311 15.7612 12.2973 15.7715C9.37958 15.788 6.46185 15.786 3.54413 15.7715C1.49389 15.7633 0.00206054 14.2426 0 12.1965C0 9.32411 0 6.45172 0 3.57932C0 1.52909 1.49801 0.0125281 3.54206 0.00428592C5.00093 -0.00395624 6.45979 0.00222539 7.91866 0.00222539ZM7.90217 13.8923C7.90217 13.8717 7.90423 13.8511 7.90423 13.8305C8.76142 13.8305 9.6186 13.8573 10.4737 13.8243C12.4086 13.7543 13.7108 12.5921 13.8036 10.6779C13.8963 8.7451 13.8695 6.80201 13.7933 4.86716C13.7335 3.38563 12.5961 2.13489 11.1125 2.03804C9.09316 1.90617 7.05323 1.85671 5.03596 1.98034C3.13614 2.0978 2.08938 3.22491 1.99048 5.14327C1.89363 7.05958 1.92661 8.98824 2.00903 10.9087C2.0729 12.3717 3.21032 13.5482 4.66506 13.7254C5.73654 13.8594 6.82245 13.8429 7.90217 13.8923Z" fill="url(#paint0_linear_14771_17267)"/>
<path d="M12.7548 7.9019C12.7548 8.74466 12.7898 9.58742 12.7465 10.4281C12.6744 11.8623 12.0624 12.6247 10.6407 12.6988C8.73878 12.7977 6.82248 12.7524 4.91854 12.6597C3.83882 12.6061 3.11144 11.8004 3.0826 10.7207C3.03314 8.82708 3.02902 6.93138 3.0826 5.03981C3.11556 3.87972 3.87178 3.11526 5.18434 3.05757C7.07386 2.97308 8.97368 3.00193 10.8611 3.10084C11.9903 3.15853 12.6476 3.97657 12.7383 5.1078C12.7651 5.43749 12.798 5.76718 12.8042 6.09892C12.8145 6.7006 12.8063 7.30228 12.8063 7.90396C12.7898 7.9019 12.7713 7.9019 12.7548 7.9019ZM7.90426 10.9494C9.58978 10.9494 10.9724 9.57918 10.991 7.89778C11.0074 6.21225 9.60214 4.80903 7.89602 4.80903C6.21049 4.80903 4.82581 6.17929 4.80933 7.86069C4.79285 9.54621 6.20019 10.9494 7.90426 10.9494ZM11.8193 4.706C11.8275 4.32068 11.5102 3.99305 11.1166 3.98069C10.7087 3.96833 10.3955 4.2568 10.381 4.65861C10.3666 5.07896 10.686 5.42307 11.0899 5.42307C11.4628 5.42101 11.811 5.07896 11.8193 4.706Z" fill="url(#paint1_linear_14771_17267)"/>
<path d="M7.892 9.86747C6.79991 9.86541 5.92006 8.98762 5.90976 7.89347C5.89945 6.7849 6.79578 5.88857 7.90848 5.89063C9.00056 5.89269 9.88042 6.77048 9.89072 7.86463C9.90103 8.9732 9.00675 9.86953 7.892 9.86747Z" fill="url(#paint2_linear_14771_17267)"/>
<defs>
<linearGradient id="paint0_linear_14771_17267" x1="7.90491" y1="15.7822" x2="7.90491" y2="0.000536176" gradientUnits="userSpaceOnUse">
<stop stop-color="#443462"/>
<stop offset="0.5056" stop-color="#A53594"/>
<stop offset="1" stop-color="#DA2128"/>
</linearGradient>
<linearGradient id="paint1_linear_14771_17267" x1="7.92573" y1="12.7525" x2="7.92573" y2="3.00463" gradientUnits="userSpaceOnUse">
<stop stop-color="#443462"/>
<stop offset="0.5056" stop-color="#A53594"/>
<stop offset="1" stop-color="#DA2128"/>
</linearGradient>
<linearGradient id="paint2_linear_14771_17267" x1="7.90127" y1="9.86716" x2="7.90127" y2="5.88972" gradientUnits="userSpaceOnUse">
<stop stop-color="#443462"/>
<stop offset="0.5056" stop-color="#A53594"/>
<stop offset="1" stop-color="#DA2128"/>
</linearGradient>
</defs>
</svg>
