<svg width="14" height="15" viewBox="0 0 14 15" fill="none" xmlns="http://www.w3.org/2000/svg">
<path d="M0 7.0055C0 6.99108 0.317319 4.19493 0.614037 2.83497C0.85512 1.72846 1.52687 0.916606 2.81264 0.873334C2.93628 0.869213 3.10936 0.790913 3.1959 0.702309C3.97272 -0.0889383 4.92469 -0.123968 5.88284 0.168629C8.46676 0.959877 10.7725 2.2848 12.7836 4.0816C13.6202 4.82957 14.1765 5.76918 13.7047 6.98696C13.6655 7.08587 13.6861 7.22598 13.7253 7.33107C14.0797 8.30983 13.7912 9.15671 13.1009 9.84287C10.9559 11.9735 8.39052 13.4117 5.4831 14.1927C4.56616 14.4379 3.66364 14.203 3.029 13.3705C2.93627 13.2469 2.76936 13.1232 2.62306 13.1068C1.43207 12.9605 0.826275 12.1548 0.603737 11.1163C0.315261 9.77487 0 8.41491 0 7.0055ZM5.07099 2.44141C4.08811 2.40019 3.41844 2.84527 3.08464 3.721C2.21921 5.97935 2.20685 8.26243 3.08464 10.5167C3.50911 11.6088 4.17672 11.9838 5.31414 11.7365C7.72704 11.2111 9.62891 9.85317 11.1269 7.91832C11.605 7.30016 11.5926 6.61606 11.1455 5.9876C9.65364 3.88997 7.52509 2.87 5.07099 2.44141ZM2.47471 12.5772C1.57219 8.8229 1.50626 5.11393 2.61483 1.35962C1.87509 1.47913 1.41148 1.91597 1.21572 2.54443C0.974641 3.31301 0.723248 4.12075 0.719127 4.91405C0.708824 6.80357 0.778886 8.70133 0.941669 10.5826C1.01997 11.4645 1.4259 12.2908 2.47471 12.5772ZM3.50086 13.1645C3.97684 13.7208 4.57646 13.898 5.1905 13.7455C6.04563 13.5333 6.91106 13.2778 7.7023 12.8945C9.50322 12.025 11.2835 11.0957 12.6826 9.61003C13.1401 9.12374 13.5027 8.5777 13.3235 7.79881C10.5232 10.4672 7.2428 12.1342 3.50086 13.1645ZM13.2761 6.43886C13.342 6.41207 13.4079 6.38322 13.4739 6.35643C13.3049 5.90724 13.2328 5.37356 12.9423 5.02532C12.4436 4.42777 11.8584 3.87348 11.2196 3.43047C9.54031 2.26008 7.79709 1.18035 5.79424 0.63019C5.1225 0.444742 4.44047 0.345836 3.78728 0.85685C7.34171 2.10348 10.5458 3.86936 13.2761 6.43886Z" fill="url(#paint0_linear_14771_17281)"/>
<path d="M5.31396 8.89701C5.31396 7.58445 5.31396 6.49236 5.31396 5.17773C6.42666 5.82474 7.39922 6.38933 8.52428 7.04252C7.39098 7.69778 6.42254 8.25618 5.31396 8.89701Z" fill="url(#paint1_linear_14771_17281)"/>
<defs>
<linearGradient id="paint0_linear_14771_17281" x1="6.9372" y1="14.2828" x2="6.9372" y2="-0.00167474" gradientUnits="userSpaceOnUse">
<stop stop-color="#443462"/>
<stop offset="0.5056" stop-color="#A53594"/>
<stop offset="1" stop-color="#DA2128"/>
</linearGradient>
<linearGradient id="paint1_linear_14771_17281" x1="6.91955" y1="8.8966" x2="6.91955" y2="5.17825" gradientUnits="userSpaceOnUse">
<stop stop-color="#443462"/>
<stop offset="0.5056" stop-color="#A53594"/>
<stop offset="1" stop-color="#DA2128"/>
</linearGradient>
</defs>
</svg>
