<svg width="15" height="16" viewBox="0 0 15 16" fill="none" xmlns="http://www.w3.org/2000/svg">
<path d="M10.2672 0C10.3393 0.508954 10.3455 1.04057 10.498 1.52686C10.8998 2.81264 12.1299 3.69661 13.4755 3.74812C13.7186 3.75843 13.9617 3.78109 14.2111 3.79964C14.2111 4.91439 14.2111 5.99411 14.2111 7.15832C13.5228 7.08826 12.849 7.0759 12.202 6.93784C11.5674 6.80185 10.9595 6.5381 10.296 6.31556C10.296 6.41859 10.296 6.54222 10.296 6.66585C10.3002 7.99696 10.3105 9.32807 10.3063 10.6612C10.3002 13.4059 8.51367 15.4602 5.79582 15.8579C5.75254 15.8641 5.71133 15.893 5.67012 15.9094C5.34044 15.9094 5.01075 15.9094 4.679 15.9094C4.21332 15.792 3.73115 15.7199 3.28814 15.5488C0.959727 14.6566 -0.373443 12.2602 0.092239 9.85145C0.5538 7.46122 2.66379 5.72624 5.13026 5.72212C5.51352 5.72212 5.89884 5.77157 6.29241 5.80042C6.30477 5.89933 6.31919 5.95496 6.31919 6.01266C6.32125 7.10681 6.31919 8.20095 6.31919 9.34043C6.09047 9.26625 5.89472 9.19619 5.69691 9.1385C4.98396 8.93657 4.35962 9.10141 3.86509 9.64745C3.39116 10.1729 3.27577 10.7911 3.54364 11.4525C3.82182 12.1428 4.36786 12.4951 5.09317 12.5611C6.06575 12.6476 6.92293 11.8028 6.93117 10.7437C6.94354 9.31777 6.93529 7.89187 6.93736 6.46804C6.93942 4.31271 6.94354 2.15533 6.9456 0C8.05005 0 9.15862 0 10.2672 0ZM7.85842 0.937546C7.85842 1.11681 7.85842 1.25693 7.85842 1.39705C7.85842 4.44871 7.85842 7.50037 7.8543 10.552C7.8543 10.7746 7.83575 10.9992 7.80278 11.2196C7.60703 12.5549 6.41398 13.5378 5.07051 13.4759C3.68788 13.4121 2.57931 12.3488 2.48865 10.995C2.39798 9.64127 3.33553 8.42555 4.6584 8.18859C4.89742 8.14532 5.14056 8.12883 5.37134 8.10205C5.37134 7.60752 5.37134 7.13359 5.37134 6.65967C5.10553 6.65967 4.86857 6.63494 4.63779 6.66379C2.40623 6.93166 0.827852 8.83972 0.939121 11.1228C1.04009 13.2019 2.92136 14.9533 5.08493 14.9863C7.45661 15.0213 9.38322 13.1483 9.39146 10.7725C9.39764 8.81705 9.37704 6.85954 9.36879 4.90409C9.36879 4.76809 9.36879 4.6321 9.36879 4.40544C10.5433 5.4048 11.757 6.12187 13.2879 6.15896C13.2879 5.64794 13.2879 5.1699 13.2879 4.69391C11.1058 4.34774 9.79945 3.1073 9.37498 0.937546C8.88251 0.937546 8.3921 0.937546 7.85842 0.937546Z" fill="url(#paint0_linear_14771_17272)"/>
<defs>
<linearGradient id="paint0_linear_14771_17272" x1="7.10463" y1="15.9092" x2="7.10463" y2="0.000390674" gradientUnits="userSpaceOnUse">
<stop stop-color="#443462"/>
<stop offset="0.5056" stop-color="#A53594"/>
<stop offset="1" stop-color="#DA2128"/>
</linearGradient>
</defs>
</svg>
