<svg width="49" height="31" viewBox="0 0 49 31" fill="none" xmlns="http://www.w3.org/2000/svg">
<path d="M35.7896 5.82352V31H29.3098C28.6204 31 28.0627 30.4397 28.0627 29.7472V7.76259H7.72695V31H0.908684C0.407341 31 0 30.5908 0 30.0871V6.89378V0.868806V0H0.864816H7.72695H28.0627H28.1191H29.9928C33.1952 0 35.7896 2.60642 35.7896 5.82352ZM49 15.0656H41.2731V31H49V15.0656ZM22.034 11.3448H14.3071V31H22.034V11.3448ZM45.1334 0C43.103 0 41.4611 1.64947 41.4611 3.68928C41.4611 5.72908 43.103 7.37855 45.1334 7.37855C47.1638 7.37855 48.8057 5.72908 48.8057 3.68928C48.8057 1.64947 47.1638 0 45.1334 0Z" fill="url(#paint0_linear_3741_35111)"/>
<defs>
<linearGradient id="paint0_linear_3741_35111" x1="0" y1="15.4999" x2="48.9991" y2="15.4999" gradientUnits="userSpaceOnUse">
<stop stop-color="#3C3795"/>
<stop offset="0.5056" stop-color="#A53594"/>
<stop offset="1" stop-color="#DA2128"/>
</linearGradient>
</defs>
</svg>
