<svg width="12" height="12" viewBox="0 0 12 12" fill="none" xmlns="http://www.w3.org/2000/svg">
<path d="M6 0.65625C6.72917 0.65625 7.35417 0.916667 7.875 1.4375C8.39583 1.95833 8.65625 2.59375 8.65625 3.34375C8.65625 4.07292 8.39583 4.69792 7.875 5.21875C7.35417 5.73958 6.72917 6 6 6C5.27083 6 4.64583 5.73958 4.125 5.21875C3.60417 4.69792 3.34375 4.07292 3.34375 3.34375C3.34375 2.59375 3.60417 1.95833 4.125 1.4375C4.64583 0.916667 5.27083 0.65625 6 0.65625ZM6 2C5.625 2 5.30208 2.13542 5.03125 2.40625C4.78125 2.65625 4.65625 2.96875 4.65625 3.34375C4.65625 3.69792 4.78125 4.01042 5.03125 4.28125C5.30208 4.53125 5.625 4.65625 6 4.65625C6.375 4.65625 6.6875 4.53125 6.9375 4.28125C7.20833 4.01042 7.34375 3.69792 7.34375 3.34375C7.34375 2.96875 7.20833 2.65625 6.9375 2.40625C6.6875 2.13542 6.375 2 6 2ZM6 6.65625C6.66667 6.65625 7.39583 6.76042 8.1875 6.96875C9.08333 7.19792 9.80208 7.48958 10.3438 7.84375C11.0104 8.28125 11.3438 8.78125 11.3438 9.34375V11.3438H0.65625V9.34375C0.65625 8.78125 0.989583 8.28125 1.65625 7.84375C2.19792 7.48958 2.91667 7.19792 3.8125 6.96875C4.60417 6.76042 5.33333 6.65625 6 6.65625ZM6 7.9375C5.375 7.9375 4.72917 8.02083 4.0625 8.1875C3.47917 8.35417 2.97917 8.55208 2.5625 8.78125C2.14583 9.01042 1.9375 9.19792 1.9375 9.34375V10.0625H10.0625V9.34375C10.0625 9.19792 9.85417 9.01042 9.4375 8.78125C9.02083 8.55208 8.52083 8.35417 7.9375 8.1875C7.27083 8.02083 6.625 7.9375 6 7.9375Z" fill="#999999"/>
</svg>
