<svg width="24" height="24" viewBox="0 0 24 24" fill="none" xmlns="http://www.w3.org/2000/svg">
<path d="M18.6341 6.63471C18.9465 6.32229 19.4531 6.32229 19.7655 6.63471C20.0779 6.94712 20.0779 7.45366 19.7655 7.76608L10.1655 17.3661C9.85307 17.6785 9.34654 17.6785 9.03412 17.3661L5.03412 13.3661C4.7217 13.0537 4.7217 12.5471 5.03412 12.2347C5.34654 11.9223 5.85307 11.9223 6.16549 12.2347L9.5998 15.669L18.6341 6.63471Z" fill="#4CE1B6"/>
<mask id="mask0_14993_17221" style="mask-type:alpha" maskUnits="userSpaceOnUse" x="4" y="6" width="16" height="12">
<path d="M18.6341 6.63471C18.9465 6.32229 19.4531 6.32229 19.7655 6.63471C20.0779 6.94712 20.0779 7.45366 19.7655 7.76608L10.1655 17.3661C9.85307 17.6785 9.34654 17.6785 9.03412 17.3661L5.03412 13.3661C4.7217 13.0537 4.7217 12.5471 5.03412 12.2347C5.34654 11.9223 5.85307 11.9223 6.16549 12.2347L9.5998 15.669L18.6341 6.63471Z" fill="white"/>
</mask>
<g mask="url(#mask0_14993_17221)">
<rect width="24" height="24" fill="#4CE1B6"/>
</g>
</svg>
