<svg width="14" height="14" viewBox="0 0 14 14" fill="none" xmlns="http://www.w3.org/2000/svg">
<path d="M13.6562 11V13.6562H11V11.6562H9V9.65625H7L5.5 8.15625C5.125 8.28125 4.73958 8.34375 4.34375 8.34375C3.80208 8.34375 3.28125 8.23958 2.78125 8.03125C2.30208 7.82292 1.875 7.53125 1.5 7.15625C1.125 6.78125 0.833333 6.35417 0.625 5.875C0.4375 5.375 0.34375 4.86458 0.34375 4.34375C0.34375 3.61458 0.520833 2.94792 0.875 2.34375C1.22917 1.71875 1.70833 1.22917 2.3125 0.875C2.9375 0.520833 3.60417 0.34375 4.3125 0.34375C5.04167 0.34375 5.70833 0.520833 6.3125 0.875C6.9375 1.22917 7.42708 1.71875 7.78125 2.34375C8.15625 2.94792 8.34375 3.61458 8.34375 4.34375C8.34375 4.73958 8.28125 5.125 8.15625 5.5L13.6562 11ZM3.65625 2.34375C3.30208 2.34375 2.98958 2.47917 2.71875 2.75C2.46875 3 2.34375 3.3125 2.34375 3.6875C2.34375 4.04167 2.46875 4.35417 2.71875 4.625C2.98958 4.875 3.30208 5 3.65625 5C4.03125 5 4.34375 4.875 4.59375 4.625C4.86458 4.35417 5 4.04167 5 3.6875C5 3.3125 4.86458 3 4.59375 2.75C4.34375 2.47917 4.03125 2.34375 3.65625 2.34375Z" fill="#999999"/>
</svg>
