<svg width="56" height="28" viewBox="0 0 56 28" fill="none" xmlns="http://www.w3.org/2000/svg">
<g clip-path="url(#clip0_14825_16899)" filter="url(#filter0_d_14825_16899)">
<path d="M35.4875 5.57218C36.4527 5.23453 37.3639 4.72193 38.3169 4.62746C39.9577 4.46651 41.211 5.61417 41.6579 7.46511C42.075 9.19009 42.0785 10.9361 41.6369 12.6558C40.9806 15.2188 38.989 16.4557 36.3654 15.9938C36.1961 15.9641 36.0216 15.9676 35.7685 15.9483C35.7685 17.0977 35.7685 18.2244 35.7685 19.407C34.5972 19.6082 33.4923 19.7972 32.3124 20.0001C32.3124 14.9319 32.3124 9.91963 32.3124 4.86014C33.2829 4.86014 34.2342 4.86014 35.2745 4.86014C35.3548 5.12956 35.4473 5.44097 35.4875 5.57218ZM35.7528 10.5967C35.7528 11.209 35.7248 11.8213 35.7632 12.4301C35.7824 12.7433 35.8715 13.2874 36.0146 13.3171C36.4632 13.4098 36.9834 13.3993 37.4128 13.2489C37.6868 13.1527 37.9294 12.773 38.0516 12.4651C38.6102 11.0655 38.6259 9.62921 38.1843 8.19639C37.9975 7.58757 37.5978 7.15546 36.8909 7.3234C36.2066 7.48611 35.6498 7.78352 35.7388 8.67575C35.8051 9.30906 35.7528 9.95461 35.7528 10.5967ZM51.9686 11.4294C50.0608 11.4294 48.1809 11.4294 46.3062 11.4294C46.2172 12.6366 46.8508 13.4781 47.9714 13.4553C49.0781 13.4326 50.1795 13.1876 51.3734 13.0284C51.4502 13.5428 51.5916 14.1918 51.623 14.8461C51.6317 15.0473 51.3821 15.3675 51.1762 15.455C49.2875 16.2492 47.357 16.4049 45.4177 15.6387C44.1662 15.1453 43.4261 14.1691 43.0508 12.906C42.576 11.307 42.5551 9.69394 43.0176 8.08792C43.6844 5.77687 45.5312 4.43852 47.8091 4.59247C50.1638 4.75168 51.6649 6.22124 51.9512 8.74748C52.0507 9.60472 51.9686 10.4812 51.9686 11.4294ZM46.2224 9.24083C47.1178 9.24083 47.9365 9.24083 48.7586 9.24083C48.6277 7.55958 48.2577 6.96126 47.4163 7.0085C46.6361 7.05049 46.2172 7.822 46.2224 9.24083ZM4.00005 14.6432C3.98609 14.8951 4.24443 15.3517 4.44516 15.3937C5.79445 15.6771 7.16817 16.083 8.52269 16.0515C10.5335 16.0043 11.792 14.8339 12.0033 13.2541C12.2808 11.1967 11.607 10.1121 9.50367 9.22683C8.96954 9.0029 8.40051 8.8367 7.917 8.53229C7.64819 8.36259 7.52076 7.96721 7.32876 7.6733C7.64295 7.5141 7.97809 7.19219 8.26959 7.22718C9.20868 7.33915 10.1303 7.58058 11.1462 7.79051C11.2474 7.1782 11.4028 6.47141 11.4604 5.75588C11.4761 5.55818 11.2195 5.1803 11.0502 5.15406C9.7463 4.96161 8.41971 4.65021 7.12453 4.73768C5.34236 4.85664 4.29679 5.96756 4.11177 7.47036C3.89009 9.29156 4.54117 10.4077 6.29716 11.1845C6.90634 11.4539 7.56266 11.6341 8.12995 11.97C8.42669 12.1467 8.5768 12.5718 8.79325 12.885C8.44938 13.0879 8.07758 13.4973 7.76339 13.4571C6.6323 13.3119 5.5204 13.0162 4.31425 12.7608C4.21126 13.3294 4.03846 13.9819 4.00005 14.6432ZM18.2574 13.2419C17.8839 13.0757 17.3044 12.766 17.2887 12.4914C17.1979 10.8206 17.2433 9.14111 17.2433 7.39163C17.8734 7.39163 18.4163 7.39163 19.0342 7.39163C19.1581 6.51865 19.2733 5.70864 19.4043 4.79016C18.5978 4.79016 17.9433 4.79016 17.2119 4.79016C17.2119 4.21109 17.2119 3.72124 17.2119 3.23313C17.2119 2.72228 17.2119 2.20969 17.2119 1.66385C16.7231 1.72683 16.3478 1.75832 15.9795 1.82655C14.1712 2.1607 14.1712 2.1642 13.8937 4.01865C13.8221 4.4945 13.7697 4.95112 13.0977 4.93712C12.9511 4.93362 12.705 5.1698 12.6648 5.33425C12.5129 5.97456 12.4239 6.63061 12.3017 7.3409C12.8062 7.37939 13.2269 7.41088 13.6982 7.44587C13.7121 7.76602 13.7366 8.04944 13.7366 8.33285C13.74 9.84615 13.7034 11.3612 13.7505 12.8727C13.7907 14.1534 14.1485 15.308 15.5065 15.8084C16.7109 16.2527 17.9275 16.2282 19.1442 15.8363C19.1442 14.9161 19.1442 14.0519 19.1442 13.1492C18.8143 13.1929 18.4809 13.3416 18.2574 13.2419ZM23.8902 9.91088C23.8902 8.36434 24.2341 8.0092 25.8016 7.93222C26.0006 7.92172 26.1996 7.91298 26.4212 7.90248C26.4212 6.8423 26.4212 5.81011 26.4212 4.78841C25.2325 4.47176 24.3772 4.90913 23.679 5.93607C23.583 5.49695 23.5167 5.19079 23.4469 4.87064C22.4292 4.87064 21.4273 4.87064 20.4463 4.87064C20.4463 8.57778 20.4463 12.2237 20.4463 15.8643C21.6123 15.8643 22.7033 15.8643 23.8885 15.8643C23.8902 13.8524 23.8902 11.8825 23.8902 9.91088ZM27.4144 15.8713C28.5769 15.8713 29.6696 15.8713 30.8007 15.8713C30.8007 12.1852 30.8007 8.54104 30.8007 4.85315C29.6574 4.85315 28.5665 4.85315 27.4144 4.85315C27.4144 8.57603 27.4144 12.2219 27.4144 15.8713ZM29.1215 0.000101299C28.0585 -0.0103956 27.2399 0.796112 27.2451 1.8493C27.2504 2.88324 28.1126 3.72298 29.1442 3.69499C30.1549 3.667 30.9142 2.86224 30.909 1.8248C30.902 0.76987 30.1584 0.0105982 29.1215 0.000101299Z" fill="#70BBFD"/>
</g>
<defs>
<filter id="filter0_d_14825_16899" x="0" y="0" width="56" height="28" filterUnits="userSpaceOnUse" color-interpolation-filters="sRGB">
<feFlood flood-opacity="0" result="BackgroundImageFix"/>
<feColorMatrix in="SourceAlpha" type="matrix" values="0 0 0 0 0 0 0 0 0 0 0 0 0 0 0 0 0 0 127 0" result="hardAlpha"/>
<feOffset dy="4"/>
<feGaussianBlur stdDeviation="2"/>
<feComposite in2="hardAlpha" operator="out"/>
<feColorMatrix type="matrix" values="0 0 0 0 0 0 0 0 0 0 0 0 0 0 0 0 0 0 0.25 0"/>
<feBlend mode="normal" in2="BackgroundImageFix" result="effect1_dropShadow_14825_16899"/>
<feBlend mode="normal" in="SourceGraphic" in2="effect1_dropShadow_14825_16899" result="shape"/>
</filter>
<clipPath id="clip0_14825_16899">
<rect width="48" height="20" fill="white" transform="translate(4)"/>
</clipPath>
</defs>
</svg>
