<svg width="13" height="14" viewBox="0 0 13 14" fill="none" xmlns="http://www.w3.org/2000/svg">
<path d="M6.17627 7.80127C5.68115 7.80127 5.21566 7.70817 4.77979 7.52197C4.34814 7.33154 3.9694 7.07552 3.64355 6.75391C3.32194 6.42806 3.06803 6.04932 2.88184 5.61768C2.69564 5.1818 2.60254 4.71842 2.60254 4.22754C2.60254 3.73242 2.69564 3.26904 2.88184 2.8374C3.06803 2.40153 3.32194 2.02279 3.64355 1.70117C3.9694 1.37533 4.34814 1.1193 4.77979 0.933105C5.21566 0.742676 5.68115 0.647461 6.17627 0.647461C6.66715 0.647461 7.12842 0.742676 7.56006 0.933105C7.99593 1.1193 8.37467 1.37533 8.69629 1.70117C9.02214 2.02279 9.27816 2.40153 9.46436 2.8374C9.65479 3.26904 9.75 3.73242 9.75 4.22754C9.75 4.71842 9.65479 5.1818 9.46436 5.61768C9.27816 6.04932 9.02214 6.42806 8.69629 6.75391C8.37467 7.07552 7.99593 7.33154 7.56006 7.52197C7.12842 7.70817 6.66715 7.80127 6.17627 7.80127ZM6.17627 1.30127C5.77425 1.30127 5.39551 1.37744 5.04004 1.52979C4.68457 1.68213 4.37354 1.8916 4.10693 2.1582C3.84456 2.42057 3.63509 2.72949 3.47852 3.08496C3.32617 3.44043 3.25 3.82129 3.25 4.22754C3.25 4.62956 3.32617 5.0083 3.47852 5.36377C3.63509 5.71924 3.84456 6.03027 4.10693 6.29688C4.37354 6.55924 4.68457 6.7666 5.04004 6.91895C5.39551 7.07129 5.77425 7.14746 6.17627 7.14746C6.57829 7.14746 6.95703 7.07129 7.3125 6.91895C7.66797 6.7666 7.97689 6.55924 8.23926 6.29688C8.50586 6.03027 8.71533 5.71924 8.86768 5.36377C9.02425 5.0083 9.10254 4.62956 9.10254 4.22754C9.10254 3.82129 9.02425 3.44043 8.86768 3.08496C8.71533 2.72949 8.50586 2.42057 8.23926 2.1582C7.97689 1.8916 7.66797 1.68213 7.3125 1.52979C6.95703 1.37744 6.57829 1.30127 6.17627 1.30127ZM11.375 13.6475H0.977539C0.706706 13.6475 0.476074 13.5522 0.285645 13.3618C0.0952148 13.1714 0 12.9429 0 12.6763C0 12.6636 0.00423177 12.5938 0.0126953 12.4668C0.0211589 12.3398 0.0507812 12.1769 0.101562 11.978C0.152344 11.7791 0.230632 11.5549 0.336426 11.3052C0.446452 11.0513 0.598796 10.7931 0.793457 10.5308C0.911947 10.3784 1.0389 10.2345 1.17432 10.0991C1.30973 9.95947 1.45361 9.8304 1.60596 9.71191C1.76253 9.58919 1.92757 9.47705 2.10107 9.37549C2.27881 9.26969 2.46501 9.17448 2.65967 9.08984C2.89665 8.98405 3.14844 8.89095 3.41504 8.81055C3.68164 8.73014 3.96094 8.66455 4.25293 8.61377C4.54915 8.55876 4.85596 8.51855 5.17334 8.49316C5.49495 8.46354 5.82926 8.44873 6.17627 8.44873C6.51904 8.44873 6.85124 8.46354 7.17285 8.49316C7.49447 8.51855 7.80127 8.55876 8.09326 8.61377C8.38525 8.66455 8.66455 8.73014 8.93115 8.81055C9.19775 8.89095 9.44954 8.98405 9.68652 9.08984C9.88118 9.17448 10.0653 9.26969 10.2388 9.37549C10.4165 9.47705 10.5837 9.58919 10.7402 9.71191C10.8968 9.8304 11.0428 9.95947 11.1782 10.0991C11.3136 10.2345 11.4385 10.3784 11.5527 10.5308C11.7516 10.7931 11.904 11.0513 12.0098 11.3052C12.1156 11.5549 12.1938 11.7791 12.2446 11.978C12.2954 12.1769 12.325 12.3398 12.3335 12.4668C12.3462 12.5938 12.3525 12.6636 12.3525 12.6763C12.3525 12.9429 12.2573 13.1714 12.0669 13.3618C11.8765 13.5522 11.6458 13.6475 11.375 13.6475ZM6.17627 9.10254C5.60921 9.10254 5.08024 9.14062 4.58936 9.2168C4.09847 9.29297 3.6499 9.40723 3.24365 9.55957C2.8374 9.70768 2.47347 9.89388 2.15186 10.1182C1.83447 10.3424 1.56364 10.6006 1.33936 10.8926C1.17008 11.1126 1.0389 11.3285 0.945801 11.54C0.852702 11.7516 0.782878 11.9421 0.736328 12.1113C0.69401 12.2764 0.66862 12.4118 0.660156 12.5176C0.651693 12.6191 0.647461 12.672 0.647461 12.6763C0.647461 12.7651 0.679199 12.8413 0.742676 12.9048C0.806152 12.9683 0.88444 13 0.977539 13H11.375C11.4639 13 11.54 12.9683 11.6035 12.9048C11.667 12.8413 11.6987 12.7651 11.6987 12.6763C11.6987 12.672 11.6945 12.6191 11.686 12.5176C11.6776 12.4118 11.6501 12.2764 11.6035 12.1113C11.5612 11.9421 11.4935 11.7516 11.4004 11.54C11.3115 11.3285 11.1825 11.1126 11.0132 10.8926C10.7889 10.6006 10.516 10.3424 10.1943 10.1182C9.87695 9.89388 9.51302 9.70768 9.10254 9.55957C8.69629 9.40723 8.24772 9.29297 7.75684 9.2168C7.27018 9.14062 6.74333 9.10254 6.17627 9.10254Z" fill="#999999"/>
</svg>
