<svg width="23" height="20" viewBox="0 0 23 20" fill="none" xmlns="http://www.w3.org/2000/svg">
<g clip-path="url(#clip0_3860_15946)">
<path d="M16.231 20C15.1823 19.4629 14.1892 18.8389 13.1643 18.2583C12.4851 17.8752 11.8098 17.4842 11.1384 17.0893C10.6538 16.801 10.3956 16.3705 10.3876 15.8057C10.3837 15.1698 10.3876 14.5379 10.3837 13.9021C10.3837 13.8665 10.3956 13.8428 10.4274 13.827C11.1583 13.4084 11.8892 12.9858 12.6201 12.5671C12.632 12.5592 12.6439 12.5474 12.6678 12.5513C12.6678 12.5711 12.6678 12.5908 12.6678 12.6106C12.6678 13.2228 12.6638 13.8349 12.6678 14.4431C12.6718 14.9447 12.8783 15.3555 13.2954 15.6438C13.4901 15.778 13.7046 15.8886 13.9072 16.0071C14.5825 16.3981 15.2538 16.801 15.941 17.1761C16.4336 17.4447 16.946 17.4645 17.4465 17.1722C18.2609 16.6943 19.0752 16.2125 19.8856 15.7307C20.2749 15.4976 20.5331 15.1698 20.6244 14.7196C20.6443 14.6169 20.6522 14.5103 20.6522 14.4076C20.6522 13.4518 20.6522 12.4921 20.6522 11.5363C20.6522 10.9281 20.3901 10.4739 19.8578 10.1698C19.0355 9.69985 18.2211 9.21406 17.3909 8.74803C16.8984 8.47157 16.378 8.45182 15.8775 8.74013C14.7056 9.41549 13.5338 10.0948 12.3619 10.7701C10.7809 11.6825 9.19991 12.5948 7.61493 13.5111C7.43618 13.6137 7.26139 13.7204 7.08264 13.8191C6.56226 14.0956 6.04188 14.1232 5.5215 13.8231C4.13911 13.0253 2.75673 12.2275 1.37435 11.4297C1.14395 11.2954 0.905608 11.169 0.679183 11.0229C0.305781 10.782 0.0833283 10.4423 0.0118257 10.004C0.00388102 9.95261 -9.13488e-05 9.90127 -9.13488e-05 9.84993C-9.13488e-05 7.94234 -0.00803608 6.03871 0.00388102 4.13113C0.00785338 3.66509 0.222361 3.28989 0.631515 3.04108C0.981083 2.82781 1.34257 2.63034 1.69611 2.42496C2.78454 1.79305 3.87297 1.15719 4.96139 0.52528C5.21165 0.37915 5.45397 0.225122 5.7082 0.0987396C5.83531 0.0355485 5.9664 3.45008e-06 6.11338 0.00790234C6.30008 0.0158012 6.49075 0.0158012 6.67746 0.00790234C6.78471 0.0039529 6.88402 0.0276496 6.97538 0.0750429C7.174 0.173779 7.36468 0.292263 7.55535 0.406796C8.82651 1.14929 10.0977 1.89179 11.3688 2.63428C11.5952 2.76462 11.8296 2.87915 12.0362 3.04108C12.4016 3.32939 12.6003 3.70459 12.6082 4.16667C12.6161 4.83808 12.6122 5.50553 12.6122 6.17694C12.6122 6.20459 12.6042 6.22038 12.5804 6.23618C11.8415 6.65877 11.1066 7.08531 10.3678 7.5079C10.3598 7.51185 10.3479 7.5158 10.336 7.5237C10.3241 7.49605 10.3281 7.47236 10.3281 7.45261C10.3281 6.8365 10.3281 6.22038 10.3281 5.60032C10.3281 5.19353 10.197 4.84203 9.91891 4.54187C9.79179 4.40759 9.63687 4.3128 9.47797 4.22196C8.66761 3.73618 7.85725 3.24645 7.04291 2.76067C6.87607 2.66193 6.6854 2.61059 6.49473 2.58294C6.20474 2.54345 5.92271 2.57899 5.66053 2.70932C5.48972 2.79621 5.33082 2.89495 5.16398 2.98974C4.44896 3.40048 3.73393 3.81122 3.02288 4.22986C2.60181 4.47868 2.34758 4.84993 2.28799 5.33966C2.28005 5.40285 2.28005 5.46999 2.28005 5.53318C2.28005 6.50474 2.27607 7.47236 2.28005 8.44392C2.28005 9.00869 2.52633 9.44708 3.01493 9.73934C3.86105 10.2488 4.70319 10.7622 5.55328 11.2638C5.83134 11.4297 6.14516 11.485 6.46692 11.4534C6.69732 11.4337 6.90785 11.3507 7.10647 11.2322C8.16709 10.5964 9.22771 9.96051 10.2923 9.33255C10.7332 9.07188 11.1901 8.83097 11.6429 8.5861C12.5923 8.07662 13.5179 7.51975 14.4514 6.97473C14.9519 6.68247 15.4405 6.37441 15.9529 6.1019C16.4376 5.84124 16.946 5.82149 17.4346 6.1019C18.9759 6.98658 20.5132 7.8752 22.0505 8.76383C22.2332 8.87046 22.4199 8.97315 22.5709 9.12718C22.8092 9.37204 22.9522 9.6643 22.988 10.004C22.988 10.0158 22.988 10.0276 22.9999 10.0355C22.9999 11.9984 22.9999 13.9613 22.9999 15.9242C22.98 15.9479 22.992 15.9795 22.984 16.0071C22.9046 16.481 22.6623 16.8444 22.2412 17.0893C20.9819 17.816 19.7267 18.5466 18.4635 19.2654C18.0186 19.5182 17.6015 19.8144 17.1168 19.9961C16.8229 20 16.5289 20 16.231 20Z" fill="url(#paint0_linear_3860_15946)"/>
</g>
<defs>
<linearGradient id="paint0_linear_3860_15946" x1="-9.13485e-05" y1="10.0003" x2="22.998" y2="10.0003" gradientUnits="userSpaceOnUse">
<stop stop-color="#443462"/>
<stop offset="0.5056" stop-color="#A53594"/>
<stop offset="1" stop-color="#DA2128"/>
</linearGradient>
<clipPath id="clip0_3860_15946">
<rect width="23" height="20" fill="white"/>
</clipPath>
</defs>
</svg>
