<svg width="21" height="16" viewBox="0 0 21 16" fill="none" xmlns="http://www.w3.org/2000/svg">
<g clip-path="url(#clip0_3860_15940)">
<path d="M20.0453 0.00409521C14.8514 0 9.66155 -0.00409521 4.46765 0.00819043C4.18205 0.00819043 3.81484 0.0450473 3.63124 0.217046C2.47251 1.31047 1.35458 2.44484 0 3.78807C0.624247 3.86588 0.930251 3.9355 1.24033 3.9355C6.31999 3.94369 11.3996 3.9396 16.4793 3.9355C16.7364 3.9355 17.0872 3.98874 17.2382 3.84541C18.4418 2.71103 19.6087 1.53161 21 0.155618C20.4084 0.0614282 20.2248 0.00409521 20.0453 0.00409521Z" fill="url(#paint0_linear_3860_15940)"/>
<path d="M17.3686 6.17968C17.1646 5.98311 16.7525 5.94625 16.4342 5.94215C11.3505 5.92987 6.27085 5.92987 1.18711 5.93806C0.897428 5.93806 0.603665 6.03634 0.313981 6.08958C0.273181 6.20015 0.2283 6.31072 0.1875 6.42129C1.12999 7.31815 2.1092 8.17814 3.00273 9.12004C3.53722 9.68518 4.10026 9.89813 4.87139 9.89404C9.76745 9.86537 14.6635 9.88175 19.5555 9.87765C19.9186 9.87765 20.2777 9.84489 20.9753 9.80804C19.6248 8.44023 18.5232 7.28538 17.3686 6.17968Z" fill="url(#paint1_linear_3860_15940)"/>
<path d="M0.363016 15.8853C0.791421 15.9058 1.21983 15.9468 1.64823 15.9468C5.98124 15.9509 10.3183 15.8526 14.6473 15.9959C16.5282 16.0573 17.9603 15.6191 19.0945 14.108C19.58 13.461 20.2288 12.9327 20.9428 12.1996C20.4736 12.0809 20.3348 12.0154 20.1961 12.0154C14.9288 12.0072 9.66144 12.0031 4.3941 12.0195C4.11666 12.0195 3.76578 12.0973 3.57401 12.2734C2.43568 13.3422 1.33407 14.452 0.220215 15.5454C0.269175 15.6601 0.318136 15.7748 0.363016 15.8853Z" fill="url(#paint2_linear_3860_15940)"/>
</g>
<defs>
<linearGradient id="paint0_linear_3860_15940" x1="4.91894" y1="-2.45598" x2="16.1122" y2="6.36323" gradientUnits="userSpaceOnUse">
<stop stop-color="#443462"/>
<stop offset="0.5056" stop-color="#A53594"/>
<stop offset="1" stop-color="#DA2128"/>
</linearGradient>
<linearGradient id="paint1_linear_3860_15940" x1="3.3486" y1="2.24348" x2="17.902" y2="13.7101" gradientUnits="userSpaceOnUse">
<stop stop-color="#443462"/>
<stop offset="0.5056" stop-color="#A53594"/>
<stop offset="1" stop-color="#DA2128"/>
</linearGradient>
<linearGradient id="paint2_linear_3860_15940" x1="4.96507" y1="9.52928" x2="16.1229" y2="18.3205" gradientUnits="userSpaceOnUse">
<stop stop-color="#443462"/>
<stop offset="0.5056" stop-color="#A53594"/>
<stop offset="1" stop-color="#DA2128"/>
</linearGradient>
<clipPath id="clip0_3860_15940">
<rect width="21" height="16" fill="white"/>
</clipPath>
</defs>
</svg>
