<svg width="12" height="10" viewBox="0 0 12 10" fill="none" xmlns="http://www.w3.org/2000/svg">
<path d="M11.6987 3.82373V3.17627C11.6987 3.15088 11.6945 3.12549 11.686 3.1001C11.6818 3.07471 11.6755 3.05143 11.667 3.03027L10.3657 0.427734C10.3361 0.372721 10.2959 0.330404 10.2451 0.300781C10.1943 0.266927 10.1372 0.25 10.0737 0.25H2.27246C2.21322 0.25 2.15609 0.266927 2.10107 0.300781C2.05029 0.330404 2.01221 0.372721 1.98682 0.427734L0.685547 3.03027C0.672852 3.05143 0.662272 3.07471 0.653809 3.1001C0.649577 3.12549 0.647461 3.15088 0.647461 3.17627V3.82373C0.647461 4.09033 0.706706 4.33789 0.825195 4.56641C0.943685 4.79069 1.10238 4.97689 1.30127 5.125V9.35254H0.977539C0.88444 9.35254 0.806152 9.38428 0.742676 9.44775C0.679199 9.51123 0.647461 9.5874 0.647461 9.67627C0.647461 9.76514 0.679199 9.84131 0.742676 9.90479C0.806152 9.96826 0.88444 10 0.977539 10H11.375C11.4639 10 11.54 9.96826 11.6035 9.90479C11.667 9.84131 11.6987 9.76514 11.6987 9.67627C11.6987 9.5874 11.667 9.51123 11.6035 9.44775C11.54 9.38428 11.4639 9.35254 11.375 9.35254H11.0513V5.125C11.2459 4.97689 11.4025 4.79069 11.521 4.56641C11.6395 4.33789 11.6987 4.09033 11.6987 3.82373ZM7.47754 4.80127C7.20671 4.80127 6.97607 4.70605 6.78564 4.51562C6.59521 4.3252 6.5 4.09456 6.5 3.82373V3.5H8.44873V3.82373C8.44873 4.09456 8.35352 4.3252 8.16309 4.51562C7.97266 4.70605 7.74414 4.80127 7.47754 4.80127ZM1.30127 3.82373V3.5H3.25V3.82373C3.25 4.09456 3.15479 4.3252 2.96436 4.51562C2.77393 4.70605 2.54329 4.80127 2.27246 4.80127C2.00586 4.80127 1.77734 4.70605 1.58691 4.51562C1.39648 4.3252 1.30127 4.09456 1.30127 3.82373ZM5.85254 0.897461V2.85254H3.99268L4.48145 0.897461H5.85254ZM7.87109 0.897461L8.35986 2.85254H6.5V0.897461H7.87109ZM3.89746 3.5H5.85254V3.82373C5.85254 4.09456 5.75732 4.3252 5.56689 4.51562C5.37646 4.70605 5.14583 4.80127 4.875 4.80127C4.60417 4.80127 4.37354 4.70605 4.18311 4.51562C3.99268 4.3252 3.89746 4.09456 3.89746 3.82373V3.5ZM9.10254 3.5H11.0513V3.82373C11.0513 4.09456 10.9561 4.3252 10.7656 4.51562C10.5752 4.70605 10.3446 4.80127 10.0737 4.80127C9.80713 4.80127 9.57861 4.70605 9.38818 4.51562C9.19775 4.3252 9.10254 4.09456 9.10254 3.82373V3.5ZM10.8481 2.85254H9.02637L8.54395 0.897461H9.87695L10.8481 2.85254ZM2.47559 0.897461H3.80859L3.31982 2.85254H1.49805L2.47559 0.897461ZM1.94873 5.41699C2.00374 5.42969 2.05664 5.43815 2.10742 5.44238C2.16243 5.44661 2.21745 5.44873 2.27246 5.44873C2.53906 5.44873 2.78451 5.38949 3.00879 5.271C3.2373 5.15251 3.42562 4.99593 3.57373 4.80127C3.72184 4.99593 3.90804 5.15251 4.13232 5.271C4.36084 5.38949 4.6084 5.44873 4.875 5.44873C5.1416 5.44873 5.38704 5.38949 5.61133 5.271C5.83984 5.15251 6.02816 4.99593 6.17627 4.80127C6.29476 4.95785 6.43652 5.09115 6.60156 5.20117C6.77083 5.30697 6.9528 5.37891 7.14746 5.41699V9.35254H1.94873V5.41699ZM10.3975 9.35254H7.80127V5.41699C8.00016 5.37891 8.18213 5.30697 8.34717 5.20117C8.51644 5.09115 8.6582 4.95785 8.77246 4.80127C8.92057 4.99593 9.10677 5.15251 9.33105 5.271C9.55957 5.38949 9.80713 5.44873 10.0737 5.44873C10.1287 5.44873 10.1838 5.44661 10.2388 5.44238C10.2938 5.43815 10.3467 5.42969 10.3975 5.41699V9.35254ZM9.10254 7.07373C9.10254 7.1626 9.0708 7.23877 9.00732 7.30225C8.94385 7.36572 8.86556 7.39746 8.77246 7.39746C8.68359 7.39746 8.60742 7.36572 8.54395 7.30225C8.48047 7.23877 8.44873 7.1626 8.44873 7.07373C8.44873 6.98486 8.48047 6.90869 8.54395 6.84521C8.60742 6.78174 8.68359 6.75 8.77246 6.75C8.86556 6.75 8.94385 6.78174 9.00732 6.84521C9.0708 6.90869 9.10254 6.98486 9.10254 7.07373ZM2.92627 7.39746C2.88395 7.39746 2.84163 7.39111 2.79932 7.37842C2.76123 7.36149 2.72738 7.3361 2.69775 7.30225C2.63428 7.23877 2.60254 7.1626 2.60254 7.07373C2.60254 6.98486 2.63428 6.90869 2.69775 6.84521L3.34521 6.19775C3.40869 6.13428 3.48486 6.10254 3.57373 6.10254C3.6626 6.10254 3.73877 6.13428 3.80225 6.19775C3.86572 6.26123 3.89746 6.3374 3.89746 6.42627C3.89746 6.51514 3.86572 6.59131 3.80225 6.65479L3.15479 7.30225C3.12516 7.3361 3.08919 7.36149 3.04688 7.37842C3.00879 7.39111 2.96859 7.39746 2.92627 7.39746ZM3.57373 8.69873C3.53141 8.69873 3.4891 8.69238 3.44678 8.67969C3.40869 8.66276 3.37484 8.63737 3.34521 8.60352C3.28174 8.54004 3.25 8.46387 3.25 8.375C3.25 8.28613 3.28174 8.20996 3.34521 8.14648L5.29395 6.19775C5.35742 6.13428 5.43359 6.10254 5.52246 6.10254C5.61556 6.10254 5.69385 6.13428 5.75732 6.19775C5.8208 6.26123 5.85254 6.3374 5.85254 6.42627C5.85254 6.51514 5.8208 6.59131 5.75732 6.65479L3.80225 8.60352C3.77262 8.63737 3.73665 8.66276 3.69434 8.67969C3.65625 8.69238 3.61605 8.69873 3.57373 8.69873ZM5.52246 8.69873C5.48438 8.69873 5.44417 8.69238 5.40186 8.67969C5.36377 8.66276 5.3278 8.63737 5.29395 8.60352C5.23047 8.54004 5.19873 8.46387 5.19873 8.375C5.19873 8.28613 5.23047 8.20996 5.29395 8.14648L5.94775 7.49268C6.01123 7.4292 6.0874 7.39746 6.17627 7.39746C6.26514 7.39746 6.34131 7.4292 6.40479 7.49268C6.46826 7.55615 6.5 7.63444 6.5 7.72754C6.5 7.81641 6.46826 7.89258 6.40479 7.95605L5.75732 8.60352C5.72347 8.63737 5.68538 8.66276 5.64307 8.67969C5.60498 8.69238 5.56478 8.69873 5.52246 8.69873Z" fill="#999999"/>
</svg>
