<svg width="13" height="12" viewBox="0 0 13 12" fill="none" xmlns="http://www.w3.org/2000/svg">
<path d="M6.17627 12C6.14665 12 6.11914 11.9979 6.09375 11.9937C6.06836 11.9852 6.04297 11.9746 6.01758 11.9619C5.99642 11.9492 5.87793 11.8794 5.66211 11.7524C5.45052 11.6255 5.17969 11.4478 4.84961 11.2192C4.51953 10.9907 4.15137 10.7157 3.74512 10.394C3.33887 10.0682 2.93262 9.70638 2.52637 9.30859C2.46289 9.24512 2.43115 9.16895 2.43115 9.08008C2.43115 8.98698 2.46289 8.90869 2.52637 8.84521C2.58984 8.78174 2.66602 8.75 2.75488 8.75C2.84375 8.75 2.91992 8.78174 2.9834 8.84521C3.30501 9.1626 3.62874 9.45671 3.95459 9.72754C4.28467 9.99837 4.59359 10.2396 4.88135 10.4512C5.17334 10.6585 5.43148 10.8341 5.65576 10.978C5.88428 11.1219 6.05778 11.2298 6.17627 11.3018C6.29476 11.2298 6.46615 11.1219 6.69043 10.978C6.91895 10.8299 7.17708 10.6522 7.46484 10.4448C7.7526 10.2332 8.06152 9.99414 8.3916 9.72754C8.72168 9.45671 9.04541 9.1626 9.36279 8.84521C9.42627 8.78174 9.50244 8.75 9.59131 8.75C9.68441 8.75 9.7627 8.78174 9.82617 8.84521C9.88965 8.90869 9.92139 8.98698 9.92139 9.08008C9.92139 9.16895 9.88753 9.24512 9.81982 9.30859C9.41781 9.70638 9.01156 10.0682 8.60107 10.394C8.19482 10.7157 7.82666 10.9907 7.49658 11.2192C7.1665 11.4478 6.89355 11.6255 6.67773 11.7524C6.46615 11.8794 6.35189 11.9492 6.33496 11.9619C6.30957 11.9746 6.28206 11.9852 6.25244 11.9937C6.22705 11.9979 6.20166 12 6.17627 12ZM0.831543 6.80127C0.772298 6.80127 0.715169 6.78434 0.660156 6.75049C0.605143 6.71663 0.564941 6.67008 0.539551 6.61084C0.450684 6.42464 0.372396 6.23633 0.304688 6.0459C0.236979 5.85547 0.17985 5.66715 0.133301 5.48096C0.0909831 5.29053 0.0571289 5.10221 0.0317383 4.91602C0.0105794 4.72982 0 4.54574 0 4.36377C0 3.89404 0.0888672 3.45182 0.266602 3.03711C0.448568 2.6224 0.69401 2.26058 1.00293 1.95166C1.31185 1.64274 1.67155 1.39941 2.08203 1.22168C2.49674 1.03971 2.94108 0.94873 3.41504 0.94873C3.57161 0.94873 3.73031 0.963542 3.89111 0.993164C4.05615 1.02279 4.21908 1.06722 4.37988 1.12646C4.54069 1.18148 4.69938 1.2513 4.85596 1.33594C5.01676 1.41634 5.17122 1.51156 5.31934 1.62158C5.49284 1.74854 5.65153 1.88818 5.79541 2.04053C5.93929 2.18864 6.06624 2.3431 6.17627 2.50391C6.28206 2.3431 6.4069 2.18864 6.55078 2.04053C6.69889 1.88818 6.8597 1.74854 7.0332 1.62158C7.18132 1.51156 7.33366 1.41634 7.49023 1.33594C7.64681 1.2513 7.8055 1.18148 7.96631 1.12646C8.12712 1.06722 8.28792 1.02279 8.44873 0.993164C8.61377 0.963542 8.77669 0.94873 8.9375 0.94873C9.40723 0.94873 9.84945 1.03971 10.2642 1.22168C10.6789 1.39941 11.0407 1.64274 11.3496 1.95166C11.6585 2.26058 11.9019 2.6224 12.0796 3.03711C12.2616 3.45182 12.3525 3.89404 12.3525 4.36377C12.3525 4.54574 12.3398 4.72982 12.3145 4.91602C12.2933 5.10221 12.2594 5.29053 12.2129 5.48096C12.1706 5.66715 12.1156 5.85547 12.0479 6.0459C11.9801 6.23633 11.9019 6.42464 11.813 6.61084C11.7749 6.69548 11.7135 6.7526 11.6289 6.78223C11.5443 6.81185 11.4618 6.80762 11.3813 6.76953C11.3009 6.73145 11.2438 6.67008 11.21 6.58545C11.1803 6.50081 11.1846 6.41829 11.2227 6.33789C11.3031 6.16862 11.3729 6.00146 11.4321 5.83643C11.4914 5.66715 11.54 5.50212 11.5781 5.34131C11.6204 5.17627 11.6501 5.01335 11.667 4.85254C11.6882 4.6875 11.6987 4.52458 11.6987 4.36377C11.6987 3.98291 11.6268 3.62533 11.4829 3.29102C11.339 2.95247 11.1401 2.65837 10.8862 2.40869C10.6366 2.15902 10.3446 1.96224 10.0103 1.81836C9.67594 1.67448 9.31836 1.60254 8.9375 1.60254C8.66243 1.60254 8.3916 1.65332 8.125 1.75488C7.86263 1.85645 7.6193 1.98975 7.39502 2.15479C7.17497 2.31982 6.98454 2.50602 6.82373 2.71338C6.66292 2.92074 6.54867 3.12598 6.48096 3.3291C6.4598 3.39258 6.4196 3.44548 6.36035 3.48779C6.30534 3.53011 6.24398 3.55127 6.17627 3.55127C6.10433 3.55127 6.03874 3.53011 5.97949 3.48779C5.92448 3.44548 5.88639 3.39258 5.86523 3.3291C5.79753 3.12598 5.68327 2.92074 5.52246 2.71338C5.36165 2.50602 5.17122 2.31982 4.95117 2.15479C4.73112 1.98975 4.48779 1.85645 4.22119 1.75488C3.95882 1.65332 3.6901 1.60254 3.41504 1.60254C3.03418 1.60254 2.67448 1.67448 2.33594 1.81836C2.00163 1.96224 1.70964 2.15902 1.45996 2.40869C1.21029 2.65837 1.01139 2.95247 0.863281 3.29102C0.719401 3.62533 0.647461 3.98291 0.647461 4.36377C0.647461 4.52458 0.65804 4.6875 0.679199 4.85254C0.700358 5.01335 0.72998 5.17627 0.768066 5.34131C0.810384 5.50212 0.861165 5.66715 0.92041 5.83643C0.979655 6.00146 1.04736 6.16862 1.12354 6.33789C1.16162 6.41829 1.16585 6.50081 1.13623 6.58545C1.10661 6.67008 1.0516 6.73145 0.971191 6.76953C0.945801 6.77799 0.92041 6.78646 0.89502 6.79492C0.873861 6.79915 0.852702 6.80127 0.831543 6.80127ZM6.83643 9.39746C6.83219 9.39746 6.83008 9.39746 6.83008 9.39746C6.83008 9.39746 6.82796 9.39746 6.82373 9.39746C6.76025 9.39746 6.67773 9.36784 6.57617 9.30859C6.47461 9.24935 6.39421 9.11393 6.33496 8.90234L5.54785 6.08398L5.021 8.2168C4.97021 8.42415 4.89404 8.56169 4.79248 8.62939C4.69515 8.69287 4.61263 8.72884 4.54492 8.7373C4.47721 8.74577 4.38835 8.72884 4.27832 8.68652C4.16829 8.64421 4.06462 8.52783 3.96729 8.3374L3.57373 7.54395C3.56527 7.52702 3.5568 7.51221 3.54834 7.49951C3.53988 7.48682 3.53141 7.47624 3.52295 7.46777C3.52295 7.47201 3.52295 7.47624 3.52295 7.48047C3.52295 7.48047 3.52083 7.48047 3.5166 7.48047C3.39811 7.6582 3.22038 7.80632 2.9834 7.9248C2.74642 8.04329 2.50944 8.10254 2.27246 8.10254H1.625C1.53613 8.10254 1.45996 8.0708 1.39648 8.00732C1.33301 7.94385 1.30127 7.86556 1.30127 7.77246C1.30127 7.68359 1.33301 7.60742 1.39648 7.54395C1.45996 7.48047 1.53613 7.44873 1.625 7.44873H2.27246C2.41211 7.44873 2.55176 7.41276 2.69141 7.34082C2.83105 7.26888 2.92839 7.19271 2.9834 7.1123C3.05534 7.00651 3.14209 6.92822 3.24365 6.87744C3.34521 6.82243 3.45101 6.79704 3.56104 6.80127C3.68376 6.80973 3.7959 6.85417 3.89746 6.93457C4.00326 7.01497 4.09001 7.12288 4.15771 7.2583L4.44336 7.83594L5.05273 5.36035C5.10352 5.15299 5.17546 5.01758 5.26855 4.9541C5.36165 4.88639 5.4484 4.85254 5.52881 4.85254C5.60498 4.85254 5.68962 4.88428 5.78271 4.94775C5.88005 5.007 5.95622 5.1403 6.01123 5.34766L6.84912 8.32471L7.61719 5.97607C7.68066 5.77295 7.76318 5.64176 7.86475 5.58252C7.97054 5.52327 8.05729 5.49365 8.125 5.49365C8.19271 5.48942 8.27946 5.5127 8.38525 5.56348C8.49528 5.61003 8.59261 5.73275 8.67725 5.93164L9.14697 7.04883C9.18929 7.15462 9.27181 7.24772 9.39453 7.32812C9.51725 7.40853 9.63574 7.44873 9.75 7.44873H10.7275C10.8164 7.44873 10.8926 7.48047 10.9561 7.54395C11.0195 7.60742 11.0513 7.68359 11.0513 7.77246C11.0513 7.86556 11.0195 7.94385 10.9561 8.00732C10.8926 8.0708 10.8164 8.10254 10.7275 8.10254H9.75C9.50879 8.10254 9.27181 8.02637 9.03906 7.87402C8.80632 7.71745 8.64339 7.52702 8.55029 7.30273L8.16309 6.38867L7.33789 8.92139C7.27018 9.12874 7.18555 9.25993 7.08398 9.31494C6.98242 9.36995 6.8999 9.39746 6.83643 9.39746Z" fill="#999999"/>
</svg>
