<svg width="26" height="21" viewBox="0 0 26 21" fill="none" xmlns="http://www.w3.org/2000/svg">
<g filter="url(#filter0_d_14771_17258)">
<path d="M7.19405 1.85243C10.9216 0.284355 14.6511 0.185449 18.4425 1.71437C17.9398 1.43414 17.4494 1.12918 16.9322 0.879851C16.4026 0.624344 15.8483 0.42035 15.3291 0.0494529C15.5681 0.0494529 15.8298 -0.0164843 16.04 0.0597557C17.1073 0.447137 18.1706 0.846882 19.2091 1.30226C19.4749 1.41971 19.7139 1.72261 19.8458 1.99872C21.0656 4.55586 21.7744 7.24898 21.8404 10.0884C21.8466 10.3975 21.6941 10.7828 21.4839 11.0136C20.431 12.1799 19.0751 12.8124 17.5215 12.7774C17.0846 12.7671 16.6581 12.1757 16.2316 11.8522C17.2021 11.2279 18.0428 10.6901 18.8856 10.1502C18.8526 10.0781 18.8196 10.0039 18.7867 9.93181C14.8943 12.1098 11.0122 12.0377 7.13635 9.91738C7.10133 9.98126 7.06424 10.0451 7.02921 10.109C7.83694 10.6489 8.64673 11.1887 9.45652 11.7307C8.84042 12.8598 8.57255 12.9793 7.29296 12.6909C6.12051 12.4271 5.09436 11.9037 4.31341 10.9786C4.12384 10.754 3.99403 10.3975 4.00021 10.107C4.05379 7.26341 4.77497 4.57646 5.97215 2.00903C6.04015 1.86273 6.0999 1.68346 6.21941 1.5928C7.46604 0.64701 8.85485 0.0824216 10.6145 0C9.32259 0.603738 8.20166 1.12918 7.08072 1.65461C7.11781 1.72055 7.1549 1.78649 7.19405 1.85243ZM11.6366 7.34789C11.6572 6.4124 10.9566 5.67473 10.0458 5.67679C9.19071 5.67679 8.45304 6.46392 8.44274 7.38704C8.43038 8.31016 9.14126 9.11377 9.99639 9.14262C10.9174 9.17147 11.6119 8.41113 11.6366 7.34789ZM17.2454 7.38704C17.2309 6.44537 16.5036 5.66855 15.6443 5.67679C14.7727 5.68503 14.0721 6.45568 14.0721 7.40558C14.0721 8.40289 14.7871 9.16116 15.7 9.1385C16.5716 9.11377 17.2598 8.33283 17.2454 7.38704Z" fill="url(#paint0_linear_14771_17258)"/>
</g>
<defs>
<filter id="filter0_d_14771_17258" x="0" y="0" width="25.8403" height="20.8242" filterUnits="userSpaceOnUse" color-interpolation-filters="sRGB">
<feFlood flood-opacity="0" result="BackgroundImageFix"/>
<feColorMatrix in="SourceAlpha" type="matrix" values="0 0 0 0 0 0 0 0 0 0 0 0 0 0 0 0 0 0 127 0" result="hardAlpha"/>
<feOffset dy="4"/>
<feGaussianBlur stdDeviation="2"/>
<feComposite in2="hardAlpha" operator="out"/>
<feColorMatrix type="matrix" values="0 0 0 0 0 0 0 0 0 0 0 0 0 0 0 0 0 0 0.25 0"/>
<feBlend mode="normal" in2="BackgroundImageFix" result="effect1_dropShadow_14771_17258"/>
<feBlend mode="normal" in="SourceGraphic" in2="effect1_dropShadow_14771_17258" result="shape"/>
</filter>
<linearGradient id="paint0_linear_14771_17258" x1="12.921" y1="12.8228" x2="12.921" y2="4.12721e-05" gradientUnits="userSpaceOnUse">
<stop stop-color="#443462"/>
<stop offset="0.5056" stop-color="#A53594"/>
<stop offset="1" stop-color="#DA2128"/>
</linearGradient>
</defs>
</svg>
