<svg width="16" height="16" viewBox="0 0 16 16" fill="none" xmlns="http://www.w3.org/2000/svg">
<path d="M11.9536 15.8497C11.9536 13.6985 11.9536 11.5947 11.9536 9.45377C12.5327 9.42493 13.1014 9.39814 13.7092 9.36723C13.7896 8.67489 13.8699 7.99079 13.9544 7.26136C13.2765 7.26136 12.6357 7.26136 11.9516 7.26136C11.9516 6.73798 11.9207 6.24757 11.9619 5.76541C11.9907 5.4419 12.2442 5.28324 12.5759 5.28118C13.0169 5.27912 13.4578 5.28118 13.9235 5.28118C13.9235 4.54145 13.9235 3.83056 13.9235 3.05992C12.8685 3.1341 11.8032 2.90744 10.7668 3.25773C9.83128 3.57505 9.33263 4.34569 9.31821 5.46457C9.31203 6.0477 9.31615 6.63083 9.31615 7.25106C8.88756 7.25106 8.49812 7.25106 8.07983 7.25106C8.07983 7.97431 8.07983 8.66253 8.07983 9.3899C8.46721 9.4105 8.86696 9.43317 9.29143 9.45584C9.29143 11.5823 9.29143 13.6923 9.29143 15.8311C9.16161 15.8373 9.04416 15.8476 8.92877 15.8476C6.85793 15.8476 4.78502 15.8518 2.71418 15.8476C1.22853 15.8435 0.0148711 14.5948 0.0169316 13.103C0.0210527 9.64334 0.0581389 6.18164 0.00044376 2.72199C-0.0284038 0.964346 1.35422 -0.00410798 2.68739 1.30984e-05C6.29128 0.0123763 9.89516 -0.0020474 13.499 0.0082553C14.8219 0.0123764 15.8481 1.03647 15.8481 2.31812C15.8481 5.9694 15.8501 9.62068 15.8439 13.274C15.8419 14.7576 14.7292 15.8518 13.2456 15.8476C12.8294 15.8476 12.4111 15.8497 11.9536 15.8497Z" fill="url(#paint0_linear_14771_17264)"/>
<defs>
<linearGradient id="paint0_linear_14771_17264" x1="7.92384" y1="15.8528" x2="7.92384" y2="0.00374282" gradientUnits="userSpaceOnUse">
<stop stop-color="#443462"/>
<stop offset="0.5056" stop-color="#A53594"/>
<stop offset="1" stop-color="#DA2128"/>
</linearGradient>
</defs>
</svg>
