<svg width="17" height="17" viewBox="0 0 17 17" fill="none" xmlns="http://www.w3.org/2000/svg">
<path d="M8.39671 16.7996C3.76049 16.8099 0.00618504 13.0618 3.42141e-06 8.41732C-0.00411766 3.75637 3.71515 0.00618931 8.35343 7.69019e-06C13.0144 -0.00617393 16.7625 3.71516 16.7687 8.3555C16.7769 13.037 13.0577 16.7893 8.39671 16.7996ZM8.96954 6.50307C8.1886 6.50307 7.46328 6.50307 6.73591 6.50307C6.73591 9.04166 6.73591 11.5493 6.73591 14.057C7.52716 14.057 8.29162 14.057 9.07668 14.057C9.07668 12.8475 9.06639 11.6688 9.08287 10.4923C9.08699 10.1028 9.11583 9.70309 9.2065 9.32601C9.36928 8.64398 9.85351 8.33902 10.5891 8.38641C11.232 8.42762 11.5988 8.74906 11.6524 9.46819C11.7204 10.3542 11.7121 11.2464 11.7265 12.1345C11.7369 12.7733 11.7286 13.41 11.7286 14.0591C12.5322 14.0591 13.2946 14.0591 14.0817 14.0591C14.0817 13.4306 14.09 12.8289 14.0797 12.2293C14.0591 11.0383 14.0756 9.84527 13.989 8.6584C13.9169 7.68376 13.5089 6.83894 12.5054 6.49071C11.3268 6.08272 9.88648 6.20636 9.05814 7.41589C9.05196 7.4262 9.01488 7.41795 8.96954 7.41795C8.96954 7.11918 8.96954 6.82246 8.96954 6.50307ZM2.89506 6.49277C2.89506 9.0499 2.89506 11.5576 2.89506 14.0735C3.68219 14.0735 4.43841 14.0735 5.21523 14.0735C5.21523 11.539 5.21523 9.02106 5.21523 6.49277C4.42811 6.49277 3.67394 6.49277 2.89506 6.49277ZM4.05721 5.43984C4.81755 5.43984 5.42952 4.82992 5.42952 4.0737C5.42952 3.32572 4.80312 2.69519 4.05721 2.69519C3.31129 2.69519 2.68694 3.3216 2.68694 4.07164C2.689 4.83198 3.29893 5.43984 4.05721 5.43984Z" fill="url(#paint0_linear_14771_17275)"/>
<defs>
<linearGradient id="paint0_linear_14771_17275" x1="8.38488" y1="16.8003" x2="8.38488" y2="8.01099e-06" gradientUnits="userSpaceOnUse">
<stop stop-color="#443462"/>
<stop offset="0.5056" stop-color="#A53594"/>
<stop offset="1" stop-color="#DA2128"/>
</linearGradient>
</defs>
</svg>
