<svg width="18" height="15" viewBox="0 0 18 15" fill="none" xmlns="http://www.w3.org/2000/svg">
<path d="M11.64 0C11.8976 0 12.1572 0 12.4148 0C13.171 0.160722 13.8386 0.49659 14.4506 0.972575C14.5969 1.08591 14.8833 1.11475 15.0708 1.05912C15.6457 0.892214 16.2062 0.667615 16.7955 0.45744C16.6368 1.26311 16.0042 1.70407 15.487 2.24393C15.7982 2.21714 16.0949 2.17387 16.3875 2.10175C16.6801 2.02963 16.9644 1.92867 17.2509 1.84006C17.2756 1.86891 17.2982 1.8957 17.323 1.92455C16.9191 2.33871 16.542 2.78585 16.099 3.15263C15.759 3.43698 15.6271 3.74812 15.5921 4.17466C15.5282 4.93087 15.487 5.70564 15.2933 6.43507C14.2548 10.3645 11.8419 12.9917 7.86302 14.0591C7.23456 14.228 6.57313 14.2754 5.92612 14.3785C5.43159 14.3785 4.93912 14.3785 4.44459 14.3785C4.37865 14.3599 4.31271 14.329 4.24472 14.3249C2.81882 14.2198 1.48977 13.7953 0.234902 13.1195C0.15248 13.0762 0.0783006 13.0164 0 12.9649C1.83594 12.8969 3.50704 12.458 5.01124 11.2876C3.4102 11.0569 2.24393 10.348 1.66286 8.85002C1.93691 8.85002 2.18211 8.86651 2.42526 8.8459C2.65604 8.8253 2.88476 8.7676 3.11554 8.72433C2.36756 8.38022 1.67316 8.02375 1.16009 7.39734C0.64289 6.76682 0.387383 6.03945 0.358535 5.21935C0.867489 5.33886 1.33317 5.45013 1.79885 5.55934C1.82152 5.51813 1.84419 5.47692 1.86685 5.43571C1.15184 4.8876 0.675859 4.18908 0.471866 3.31747C0.263751 2.4335 0.333809 1.59486 0.890155 0.7624C1.00761 0.846882 1.05912 0.970515 1.14566 1.0653C2.1409 2.1512 3.30717 3.00221 4.65476 3.60801C5.70358 4.07781 6.81215 4.31477 7.9372 4.4961C8.32253 4.55792 8.45028 4.40544 8.3864 4.00981C8.36168 3.85939 8.31635 3.70897 8.32459 3.56061C8.40701 2.08733 9.08905 0.995241 10.4346 0.366776C10.8137 0.193691 11.2382 0.119511 11.64 0Z" fill="url(#paint0_linear_14771_17261)"/>
<defs>
<linearGradient id="paint0_linear_14771_17261" x1="8.66523" y1="14.3806" x2="8.66523" y2="0.000102857" gradientUnits="userSpaceOnUse">
<stop stop-color="#443462"/>
<stop offset="0.5056" stop-color="#A53594"/>
<stop offset="1" stop-color="#DA2128"/>
</linearGradient>
</defs>
</svg>
