<svg width="16" height="12" viewBox="0 0 16 12" fill="none" xmlns="http://www.w3.org/2000/svg">
<path d="M9.70927 11.197C8.59657 11.197 7.48594 11.197 6.37325 11.197C6.2558 11.1826 6.14041 11.1599 6.02296 11.1537C4.81754 11.0878 3.61006 11.0383 2.40465 10.958C1.27547 10.8817 0.533675 10.3109 0.317319 9.34661C0.216352 8.89535 0.166905 8.42967 0.117452 7.96811C0.0638783 7.4777 0.0370897 6.98523 0 6.49276C0 5.89727 0 5.30177 0 4.70627C0.0164843 4.58882 0.0391483 4.47343 0.049451 4.35598C0.113328 3.64716 0.150418 2.93421 0.243142 2.22744C0.389441 1.09003 0.976696 0.42035 2.11205 0.286415C3.36898 0.138056 4.64033 0.121572 5.9055 0.0453318C6.0415 0.0370896 6.17955 0.0164843 6.31555 0C7.44679 0 8.57803 0 9.71133 0C9.83702 0.0144238 9.96477 0.0370897 10.0905 0.0432714C11.267 0.107148 12.4457 0.160722 13.6202 0.234902C14.9987 0.321444 15.6642 1.09621 15.8085 2.16769C15.8497 2.47883 15.9115 2.78791 15.9651 3.09699C15.9651 4.74543 15.9651 6.39386 15.9651 8.04023C15.9074 8.40907 15.8517 8.77996 15.7879 9.1488C15.6168 10.1379 15.0131 10.7931 14.0364 10.8982C12.8454 11.026 11.6441 11.0672 10.449 11.1455C10.1997 11.162 9.95447 11.1805 9.70927 11.197ZM10.62 5.59849C9.20237 4.78458 7.83623 4.00157 6.44949 3.2062C6.44949 4.81548 6.44949 6.38974 6.44949 7.99078C7.84448 7.19129 9.20649 6.40828 10.62 5.59849Z" fill="url(#paint0_linear_14771_17278)"/>
<defs>
<linearGradient id="paint0_linear_14771_17278" x1="7.98095" y1="11.1968" x2="7.98095" y2="-0.00123613" gradientUnits="userSpaceOnUse">
<stop stop-color="#443462"/>
<stop offset="0.5056" stop-color="#A53594"/>
<stop offset="1" stop-color="#DA2128"/>
</linearGradient>
</defs>
</svg>
