<svg width="157" height="14" viewBox="0 0 157 14" fill="none" xmlns="http://www.w3.org/2000/svg">
<path d="M11.9624 11H1.56494C1.29411 11 1.06348 10.9048 0.873047 10.7144C0.682617 10.5239 0.587402 10.2933 0.587402 10.0225V8.72754C0.587402 8.63444 0.619141 8.55615 0.682617 8.49268C0.746094 8.4292 0.822266 8.39746 0.911133 8.39746C1 8.39746 1.07617 8.4292 1.13965 8.49268C1.20312 8.55615 1.23486 8.63444 1.23486 8.72754V10.0225C1.23486 10.1156 1.2666 10.1938 1.33008 10.2573C1.39355 10.3208 1.47184 10.3525 1.56494 10.3525H11.9624C12.0513 10.3525 12.1274 10.3208 12.1909 10.2573C12.2544 10.1938 12.2861 10.1156 12.2861 10.0225V8.72754C12.2861 8.63444 12.3179 8.55615 12.3813 8.49268C12.4448 8.4292 12.521 8.39746 12.6099 8.39746C12.703 8.39746 12.7812 8.4292 12.8447 8.49268C12.9082 8.55615 12.9399 8.63444 12.9399 8.72754V10.0225C12.9399 10.2933 12.8447 10.5239 12.6543 10.7144C12.4639 10.9048 12.2332 11 11.9624 11ZM10.2422 4.27148L6.99219 1.02148C6.92871 0.958008 6.85254 0.92627 6.76367 0.92627C6.6748 0.92627 6.59863 0.958008 6.53516 1.02148L3.28516 4.27148C3.22168 4.33496 3.18994 4.41113 3.18994 4.5C3.18994 4.58887 3.22168 4.66504 3.28516 4.72852C3.34863 4.79199 3.4248 4.82373 3.51367 4.82373C3.60254 4.82373 3.67871 4.79199 3.74219 4.72852L6.43994 2.03711V8.72754C6.43994 8.81641 6.47168 8.89258 6.53516 8.95605C6.59863 9.01953 6.6748 9.05127 6.76367 9.05127C6.85254 9.05127 6.92871 9.01953 6.99219 8.95605C7.05566 8.89258 7.0874 8.81641 7.0874 8.72754V2.03711L9.78516 4.72852C9.81478 4.76237 9.84863 4.78776 9.88672 4.80469C9.92904 4.81738 9.97135 4.82373 10.0137 4.82373C10.056 4.82373 10.0962 4.81738 10.1343 4.80469C10.1766 4.78776 10.2126 4.76237 10.2422 4.72852C10.3057 4.66504 10.3374 4.58887 10.3374 4.5C10.3374 4.41113 10.3057 4.33496 10.2422 4.27148ZM17.8848 11V1.75781H20.4937C21.2977 1.75781 22.0086 1.93555 22.6265 2.29102C23.2443 2.64648 23.7204 3.15218 24.0547 3.80811C24.3932 4.46403 24.5646 5.21729 24.5688 6.06787V6.6582C24.5688 7.52995 24.3996 8.29378 24.061 8.94971C23.7267 9.60563 23.2464 10.1092 22.6201 10.4604C21.998 10.8117 21.2723 10.9915 20.4429 11H17.8848ZM19.1035 2.76074V10.0034H20.3857C21.3252 10.0034 22.0552 9.71143 22.5757 9.12744C23.1004 8.54346 23.3628 7.71191 23.3628 6.63281V6.09326C23.3628 5.04378 23.1152 4.22917 22.6201 3.64941C22.1292 3.06543 21.431 2.76921 20.5254 2.76074H19.1035ZM29.5518 5.18555C29.374 5.15592 29.1815 5.14111 28.9741 5.14111C28.2039 5.14111 27.6813 5.46908 27.4062 6.125V11H26.2319V4.13184H27.3745L27.3936 4.92529C27.7786 4.31169 28.3245 4.00488 29.0312 4.00488C29.2598 4.00488 29.4333 4.03451 29.5518 4.09375V5.18555ZM30.1992 7.50244C30.1992 6.82959 30.3304 6.22445 30.5928 5.68701C30.8594 5.14958 31.2275 4.73486 31.6973 4.44287C32.1712 4.15088 32.7108 4.00488 33.3159 4.00488C34.2511 4.00488 35.0065 4.32861 35.582 4.97607C36.1618 5.62354 36.4517 6.4847 36.4517 7.55957V7.64209C36.4517 8.31071 36.3226 8.91162 36.0645 9.44482C35.8105 9.9738 35.4445 10.3864 34.9663 10.6826C34.4924 10.9788 33.9465 11.127 33.3286 11.127C32.3976 11.127 31.6423 10.8032 31.0625 10.1558C30.487 9.5083 30.1992 8.65137 30.1992 7.58496V7.50244ZM31.3799 7.64209C31.3799 8.40381 31.5555 9.0153 31.9067 9.47656C32.2622 9.93783 32.7362 10.1685 33.3286 10.1685C33.9253 10.1685 34.3993 9.93571 34.7505 9.47021C35.1017 9.00049 35.2773 8.34456 35.2773 7.50244C35.2773 6.74919 35.0975 6.13981 34.7378 5.67432C34.3823 5.20459 33.9084 4.96973 33.3159 4.96973C32.7362 4.96973 32.2686 5.20036 31.9131 5.66162C31.5576 6.12288 31.3799 6.78304 31.3799 7.64209ZM43.7261 7.64209C43.7261 8.68734 43.487 9.52946 43.0088 10.1685C42.5306 10.8075 41.8831 11.127 41.0664 11.127C40.2327 11.127 39.5768 10.8625 39.0986 10.3335V13.6406H37.9243V4.13184H38.9971L39.0542 4.89355C39.5324 4.30111 40.1968 4.00488 41.0474 4.00488C41.8726 4.00488 42.5243 4.31592 43.0024 4.93799C43.4849 5.56006 43.7261 6.42546 43.7261 7.53418V7.64209ZM42.5518 7.50879C42.5518 6.73438 42.3867 6.12288 42.0566 5.67432C41.7266 5.22575 41.2738 5.00146 40.6982 5.00146C39.9873 5.00146 39.4541 5.31673 39.0986 5.94727V9.229C39.4499 9.85531 39.9873 10.1685 40.7109 10.1685C41.2738 10.1685 41.7202 9.94629 42.0503 9.50195C42.3846 9.05339 42.5518 8.389 42.5518 7.50879ZM48.8423 11V5.03955H47.7568V4.13184H48.8423V3.54785C48.8423 2.7819 49.0602 2.18522 49.4961 1.75781C49.9362 1.3304 50.5562 1.1167 51.356 1.1167C51.8299 1.1167 52.4287 1.24577 53.1523 1.50391L52.9556 2.49414C52.4266 2.28255 51.923 2.17676 51.4448 2.17676C50.9412 2.17676 50.5773 2.29102 50.353 2.51953C50.133 2.74382 50.0229 3.08236 50.0229 3.53516V4.13184H51.4258V5.03955H50.0229V11H48.8423ZM53.7363 11H52.5557V4.13184H53.7363V11ZM56.9229 11H55.7485V1.25H56.9229V11ZM61.6582 11.127C60.7272 11.127 59.9697 10.8223 59.3857 10.2129C58.8018 9.59928 58.5098 8.78044 58.5098 7.75635V7.54053C58.5098 6.85921 58.6388 6.25195 58.897 5.71875C59.1593 5.18132 59.5233 4.76237 59.9888 4.46191C60.4585 4.15723 60.9663 4.00488 61.5122 4.00488C62.4051 4.00488 63.0991 4.29899 63.5942 4.88721C64.0894 5.47542 64.3369 6.31755 64.3369 7.41357V7.90234H59.6841C59.701 8.57943 59.8978 9.12744 60.2744 9.54639C60.6553 9.9611 61.1377 10.1685 61.7217 10.1685C62.1364 10.1685 62.4876 10.0838 62.7754 9.91455C63.0632 9.74528 63.3149 9.521 63.5308 9.2417L64.248 9.80029C63.6725 10.6847 62.8092 11.127 61.6582 11.127ZM61.5122 4.96973C61.0382 4.96973 60.6405 5.14323 60.3188 5.49023C59.9972 5.83301 59.7983 6.31543 59.7222 6.9375H63.1626V6.84863C63.1287 6.25195 62.9679 5.79069 62.6802 5.46484C62.3924 5.13477 62.0031 4.96973 61.5122 4.96973ZM69.7007 9.17822C69.7007 8.86084 69.5801 8.6154 69.3389 8.44189C69.1019 8.26416 68.6851 8.11182 68.0884 7.98486C67.4959 7.85791 67.0241 7.70557 66.6729 7.52783C66.3258 7.3501 66.0677 7.13851 65.8984 6.89307C65.7334 6.64762 65.6509 6.35563 65.6509 6.01709C65.6509 5.45426 65.8879 4.97819 66.3618 4.58887C66.84 4.19954 67.4494 4.00488 68.1899 4.00488C68.9686 4.00488 69.5991 4.20589 70.0815 4.60791C70.5682 5.00993 70.8115 5.52409 70.8115 6.15039H69.6309C69.6309 5.82878 69.4933 5.5516 69.2183 5.31885C68.9474 5.0861 68.6047 4.96973 68.1899 4.96973C67.7625 4.96973 67.4282 5.06283 67.187 5.24902C66.9458 5.43522 66.8252 5.67855 66.8252 5.979C66.8252 6.26253 66.9373 6.47624 67.1616 6.62012C67.3859 6.764 67.79 6.90153 68.374 7.03271C68.9622 7.1639 69.4383 7.32048 69.8022 7.50244C70.1662 7.68441 70.4349 7.90446 70.6084 8.1626C70.7861 8.4165 70.875 8.72754 70.875 9.0957C70.875 9.70931 70.6296 10.2023 70.1387 10.5747C69.6478 10.9429 69.0109 11.127 68.228 11.127C67.6779 11.127 67.1912 11.0296 66.7681 10.835C66.3449 10.6403 66.0127 10.3695 65.7715 10.0225C65.5345 9.67122 65.416 9.29248 65.416 8.88623H66.5903C66.6115 9.27979 66.7681 9.59294 67.0601 9.82568C67.3563 10.0542 67.7456 10.1685 68.228 10.1685C68.6724 10.1685 69.0278 10.0796 69.2944 9.90186C69.5653 9.71989 69.7007 9.47868 69.7007 9.17822ZM76.8037 4.96338C77.3242 4.32438 78.0013 4.00488 78.835 4.00488C80.2865 4.00488 81.0186 4.82373 81.0312 6.46143V11H79.8569V6.45508C79.8527 5.95996 79.7384 5.59391 79.5142 5.35693C79.2941 5.11995 78.9492 5.00146 78.4795 5.00146C78.0986 5.00146 77.7643 5.10303 77.4766 5.30615C77.1888 5.50928 76.9645 5.77588 76.8037 6.10596V11H75.6294V1.25H76.8037V4.96338ZM85.6396 11.127C84.7087 11.127 83.9512 10.8223 83.3672 10.2129C82.7832 9.59928 82.4912 8.78044 82.4912 7.75635V7.54053C82.4912 6.85921 82.6203 6.25195 82.8784 5.71875C83.1408 5.18132 83.5047 4.76237 83.9702 4.46191C84.4399 4.15723 84.9478 4.00488 85.4937 4.00488C86.3866 4.00488 87.0806 4.29899 87.5757 4.88721C88.0708 5.47542 88.3184 6.31755 88.3184 7.41357V7.90234H83.6655C83.6825 8.57943 83.8792 9.12744 84.2559 9.54639C84.6367 9.9611 85.1191 10.1685 85.7031 10.1685C86.1178 10.1685 86.4691 10.0838 86.7568 9.91455C87.0446 9.74528 87.2964 9.521 87.5122 9.2417L88.2295 9.80029C87.654 10.6847 86.7907 11.127 85.6396 11.127ZM85.4937 4.96973C85.0197 4.96973 84.6219 5.14323 84.3003 5.49023C83.9787 5.83301 83.7798 6.31543 83.7036 6.9375H87.144V6.84863C87.1102 6.25195 86.9494 5.79069 86.6616 5.46484C86.3739 5.13477 85.9845 4.96973 85.4937 4.96973ZM93.0029 5.18555C92.8252 5.15592 92.6326 5.14111 92.4253 5.14111C91.6551 5.14111 91.1325 5.46908 90.8574 6.125V11H89.6831V4.13184H90.8257L90.8447 4.92529C91.2298 4.31169 91.7757 4.00488 92.4824 4.00488C92.7109 4.00488 92.8844 4.03451 93.0029 4.09375V5.18555ZM96.8115 11.127C95.8805 11.127 95.123 10.8223 94.5391 10.2129C93.9551 9.59928 93.6631 8.78044 93.6631 7.75635V7.54053C93.6631 6.85921 93.7922 6.25195 94.0503 5.71875C94.3127 5.18132 94.6766 4.76237 95.1421 4.46191C95.6118 4.15723 96.1196 4.00488 96.6655 4.00488C97.5584 4.00488 98.2524 4.29899 98.7476 4.88721C99.2427 5.47542 99.4902 6.31755 99.4902 7.41357V7.90234H94.8374C94.8543 8.57943 95.0511 9.12744 95.4277 9.54639C95.8086 9.9611 96.291 10.1685 96.875 10.1685C97.2897 10.1685 97.641 10.0838 97.9287 9.91455C98.2165 9.74528 98.4683 9.521 98.6841 9.2417L99.4014 9.80029C98.8258 10.6847 97.9626 11.127 96.8115 11.127ZM96.6655 4.96973C96.1916 4.96973 95.7938 5.14323 95.4722 5.49023C95.1506 5.83301 94.9517 6.31543 94.8755 6.9375H98.3159V6.84863C98.2821 6.25195 98.1213 5.79069 97.8335 5.46484C97.5457 5.13477 97.1564 4.96973 96.6655 4.96973ZM105.673 2.46875V4.13184H106.955V5.03955H105.673V9.29883C105.673 9.57389 105.73 9.78125 105.844 9.9209C105.958 10.0563 106.153 10.124 106.428 10.124C106.564 10.124 106.75 10.0986 106.987 10.0479V11C106.678 11.0846 106.377 11.127 106.085 11.127C105.561 11.127 105.165 10.9683 104.898 10.6509C104.632 10.3335 104.499 9.88281 104.499 9.29883V5.03955H103.248V4.13184H104.499V2.46875H105.673ZM107.895 7.50244C107.895 6.82959 108.026 6.22445 108.288 5.68701C108.555 5.14958 108.923 4.73486 109.393 4.44287C109.867 4.15088 110.406 4.00488 111.011 4.00488C111.946 4.00488 112.702 4.32861 113.277 4.97607C113.857 5.62354 114.147 6.4847 114.147 7.55957V7.64209C114.147 8.31071 114.018 8.91162 113.76 9.44482C113.506 9.9738 113.14 10.3864 112.662 10.6826C112.188 10.9788 111.642 11.127 111.024 11.127C110.093 11.127 109.338 10.8032 108.758 10.1558C108.182 9.5083 107.895 8.65137 107.895 7.58496V7.50244ZM109.075 7.64209C109.075 8.40381 109.251 9.0153 109.602 9.47656C109.958 9.93783 110.431 10.1685 111.024 10.1685C111.621 10.1685 112.095 9.93571 112.446 9.47021C112.797 9.00049 112.973 8.34456 112.973 7.50244C112.973 6.74919 112.793 6.13981 112.433 5.67432C112.078 5.20459 111.604 4.96973 111.011 4.96973C110.431 4.96973 109.964 5.20036 109.608 5.66162C109.253 6.12288 109.075 6.78304 109.075 7.64209ZM123.084 10.3208C122.627 10.8582 121.957 11.127 121.072 11.127C120.34 11.127 119.782 10.9154 119.396 10.4922C119.016 10.0648 118.823 9.43424 118.819 8.60059V4.13184H119.993V8.56885C119.993 9.60986 120.416 10.1304 121.263 10.1304C122.16 10.1304 122.757 9.79606 123.053 9.12744V4.13184H124.227V11H123.11L123.084 10.3208ZM131.819 7.64209C131.819 8.68734 131.58 9.52946 131.102 10.1685C130.623 10.8075 129.976 11.127 129.159 11.127C128.326 11.127 127.67 10.8625 127.191 10.3335V13.6406H126.017V4.13184H127.09L127.147 4.89355C127.625 4.30111 128.29 4.00488 129.14 4.00488C129.965 4.00488 130.617 4.31592 131.095 4.93799C131.578 5.56006 131.819 6.42546 131.819 7.53418V7.64209ZM130.645 7.50879C130.645 6.73438 130.479 6.12288 130.149 5.67432C129.819 5.22575 129.367 5.00146 128.791 5.00146C128.08 5.00146 127.547 5.31673 127.191 5.94727V9.229C127.543 9.85531 128.08 10.1685 128.804 10.1685C129.367 10.1685 129.813 9.94629 130.143 9.50195C130.477 9.05339 130.645 8.389 130.645 7.50879ZM134.593 11H133.418V1.25H134.593V11ZM136.167 7.50244C136.167 6.82959 136.298 6.22445 136.561 5.68701C136.827 5.14958 137.195 4.73486 137.665 4.44287C138.139 4.15088 138.679 4.00488 139.284 4.00488C140.219 4.00488 140.974 4.32861 141.55 4.97607C142.13 5.62354 142.419 6.4847 142.419 7.55957V7.64209C142.419 8.31071 142.29 8.91162 142.032 9.44482C141.778 9.9738 141.412 10.3864 140.934 10.6826C140.46 10.9788 139.914 11.127 139.296 11.127C138.365 11.127 137.61 10.8032 137.03 10.1558C136.455 9.5083 136.167 8.65137 136.167 7.58496V7.50244ZM137.348 7.64209C137.348 8.40381 137.523 9.0153 137.875 9.47656C138.23 9.93783 138.704 10.1685 139.296 10.1685C139.893 10.1685 140.367 9.93571 140.718 9.47021C141.069 9.00049 141.245 8.34456 141.245 7.50244C141.245 6.74919 141.065 6.13981 140.706 5.67432C140.35 5.20459 139.876 4.96973 139.284 4.96973C138.704 4.96973 138.236 5.20036 137.881 5.66162C137.525 6.12288 137.348 6.78304 137.348 7.64209ZM148.132 11C148.065 10.8646 148.01 10.6234 147.967 10.2764C147.421 10.8434 146.77 11.127 146.012 11.127C145.335 11.127 144.779 10.9365 144.343 10.5557C143.911 10.1706 143.695 9.68392 143.695 9.0957C143.695 8.38053 143.966 7.82617 144.508 7.43262C145.054 7.03483 145.82 6.83594 146.806 6.83594H147.948V6.29639C147.948 5.8859 147.826 5.56006 147.58 5.31885C147.335 5.0734 146.973 4.95068 146.495 4.95068C146.076 4.95068 145.724 5.05648 145.441 5.26807C145.157 5.47965 145.016 5.73568 145.016 6.03613H143.835C143.835 5.69336 143.956 5.36328 144.197 5.0459C144.442 4.72428 144.772 4.47038 145.187 4.28418C145.606 4.09798 146.065 4.00488 146.564 4.00488C147.356 4.00488 147.976 4.20378 148.424 4.60156C148.873 4.99512 149.106 5.5389 149.123 6.23291V9.39404C149.123 10.0246 149.203 10.526 149.364 10.8984V11H148.132ZM146.184 10.105C146.552 10.105 146.901 10.0098 147.231 9.81934C147.561 9.62891 147.8 9.38135 147.948 9.07666V7.66748H147.028C145.589 7.66748 144.87 8.08854 144.87 8.93066C144.87 9.29883 144.992 9.58659 145.238 9.79395C145.483 10.0013 145.799 10.105 146.184 10.105ZM150.678 7.50879C150.678 6.45508 150.927 5.60872 151.427 4.96973C151.926 4.3265 152.58 4.00488 153.388 4.00488C154.192 4.00488 154.829 4.27995 155.299 4.83008V1.25H156.473V11H155.394L155.337 10.2637C154.867 10.8392 154.213 11.127 153.375 11.127C152.58 11.127 151.93 10.8011 151.427 10.1494C150.927 9.49772 150.678 8.64714 150.678 7.59766V7.50879ZM151.852 7.64209C151.852 8.42074 152.013 9.03011 152.334 9.47021C152.656 9.91032 153.1 10.1304 153.667 10.1304C154.412 10.1304 154.956 9.79606 155.299 9.12744V5.97266C154.948 5.3252 154.408 5.00146 153.68 5.00146C153.105 5.00146 152.656 5.22363 152.334 5.66797C152.013 6.1123 151.852 6.77035 151.852 7.64209Z" fill="#999999"/>
</svg>
