<svg width="30" height="34" viewBox="0 0 30 34" fill="none" xmlns="http://www.w3.org/2000/svg">
<g filter="url(#filter0_d_14753_16544)">
<path fill-rule="evenodd" clip-rule="evenodd" d="M4 15C4 21.0751 8.92487 26 15 26C21.0751 26 26 21.0751 26 15C26 8.92487 21.0751 4 15 4C8.92487 4 4 8.92487 4 15ZM24.24 15C24.24 20.1031 20.1031 24.24 15 24.24C9.89689 24.24 5.76 20.1031 5.76 15C5.76 9.89689 9.89689 5.76 15 5.76C20.1031 5.76 24.24 9.89689 24.24 15ZM14 14C14 13.4477 14.4477 13 15 13C15.5523 13 16 13.4477 16 14V19C16 19.5523 15.5523 20 15 20C14.4477 20 14 19.5523 14 19V14ZM16 11C16 11.5523 15.5523 12 15 12C14.4477 12 14 11.5523 14 11C14 10.4477 14.4477 10 15 10C15.5523 10 16 10.4477 16 11Z" fill="black"/>
<mask id="mask0_14753_16544" style="mask-type:alpha" maskUnits="userSpaceOnUse" x="4" y="4" width="22" height="22">
<path fill-rule="evenodd" clip-rule="evenodd" d="M4 15C4 21.0751 8.92487 26 15 26C21.0751 26 26 21.0751 26 15C26 8.92487 21.0751 4 15 4C8.92487 4 4 8.92487 4 15ZM24.24 15C24.24 20.1031 20.1031 24.24 15 24.24C9.89689 24.24 5.76 20.1031 5.76 15C5.76 9.89689 9.89689 5.76 15 5.76C20.1031 5.76 24.24 9.89689 24.24 15ZM14 14C14 13.4477 14.4477 13 15 13C15.5523 13 16 13.4477 16 14V19C16 19.5523 15.5523 20 15 20C14.4477 20 14 19.5523 14 19V14ZM16 11C16 11.5523 15.5523 12 15 12C14.4477 12 14 11.5523 14 11C14 10.4477 14.4477 10 15 10C15.5523 10 16 10.4477 16 11Z" fill="white"/>
</mask>
<g mask="url(#mask0_14753_16544)">
<rect width="30" height="30" fill="#0880AE"/>
</g>
</g>
<defs>
<filter id="filter0_d_14753_16544" x="-4" y="0" width="38" height="38" filterUnits="userSpaceOnUse" color-interpolation-filters="sRGB">
<feFlood flood-opacity="0" result="BackgroundImageFix"/>
<feColorMatrix in="SourceAlpha" type="matrix" values="0 0 0 0 0 0 0 0 0 0 0 0 0 0 0 0 0 0 127 0" result="hardAlpha"/>
<feOffset dy="4"/>
<feGaussianBlur stdDeviation="2"/>
<feComposite in2="hardAlpha" operator="out"/>
<feColorMatrix type="matrix" values="0 0 0 0 0 0 0 0 0 0 0 0 0 0 0 0 0 0 0.25 0"/>
<feBlend mode="normal" in2="BackgroundImageFix" result="effect1_dropShadow_14753_16544"/>
<feBlend mode="normal" in="SourceGraphic" in2="effect1_dropShadow_14753_16544" result="shape"/>
</filter>
</defs>
</svg>
